
	<svg xmlns="http://www.w3.org/2000/svg" xmlns:xlink="http://www.w3.org/1999/xlink" version="1.1" width="512" height="512" viewBox="0 0 100 100">


		<defs>
			<g id="background">
<path fill="url(#background-gradient)" stroke="none" d=" M 97.45 2.65 Q 94.8 0 91.15 0 L 8.85 0 Q 5.2 0 2.65 2.65 0 5.2 0 8.85 L 0 91.15 Q 0 94.8 2.65 97.45 5.2 100 8.85 100 L 91.15 100 Q 94.8 100 97.45 97.45 100 94.8 100 91.15 L 100 8.85 Q 100 5.2 97.45 2.65 Z"/>
</g><g id="middle-1">
<path fill="#000000" fill-opacity="0.10196078431372549" stroke="none" d=" M 97.45 2.65 Q 94.85 0 91.15 0 L 8.85 0 Q 4.95 0 2.65 2.55 L 97.15 97.6 Q 100 95.05 100 91.15 L 100 8.85 Q 100 5.2 97.45 2.65 Z"/>
</g><mask id="mask">
<path fill="#FFFFFF" stroke="none" d=" M 97.45 2.65 Q 94.8 0 91.15 0 L 8.85 0 Q 5.2 0 2.65 2.65 0 5.2 0 8.85 L 0 91.15 Q 0 94.8 2.65 97.45 5.2 100 8.85 100 L 91.15 100 Q 94.8 100 97.45 97.45 100 94.8 100 91.15 L 100 8.85 Q 100 5.2 97.45 2.65 Z"/>
</mask>
			
	<linearGradient id="background-gradient" x1="0" y1="0" y2="1" x2="0" gradientTransform="rotate(40 0.5 0.5)">
		<stop stop-color="#770b9a" offset="0%"/>
		<stop stop-color="#000000" offset="70%"/>
	</linearGradient>

			
			
			<g transform="scale(3.8461538461538463) translate(-5 1)" id="picture"><path d="M11-1H8C6.3-1 5 .3 5 2v3h6v-6zM5 6h6v6H5zm23-7h-3v6h6V2c0-1.7-1.3-3-3-3zm-3 26h3c1.7 0 3-1.3 3-3v-3h-6v6zm-6-6h5v6h-5z M25 8.9c0 .3-.2.5-.5.5s-.5-.2-.5-.5V6h-3.5c-.3 0-.5-.2-.5-.5s.2-.5.5-.5H24v-6h-5v3.4c0 .3-.2.5-.5.5s-.5-.2-.5-.5V-1h-6v6h3.5c.3 0 .5.2.5.5s-.2.5-.5.5H12v6h.2c.3 0 .5.2.5.5s-.2.5-.5.5H12v2.5c0 .3-.2.5-.5.5s-.5-.2-.5-.5V13H5v5h3.9c.3 0 .5.2.5.5s-.2.5-.5.5H5v3c0 1.7 1.3 3 3 3h3v-1.9c0-.3.2-.5.5-.5s.5.2.5.5V25h6v-6h-3.5c-.3 0-.5-.2-.5-.5s.2-.5.5-.5H18V9.5c0-.3.2-.5.5-.5s.5.2.5.5V12h2.5c.3 0 .5.2.5.5s-.2.5-.5.5H19v5h5v-2.8c0-.3.2-.5.5-.5s.5.2.5.5V18h6v-5h-3.4c-.3 0-.5-.2-.5-.5s.2-.5.5-.5H31V6h-6v2.9zm3.8-1.8c.2.2.3.5.1.7l-3.9 5c-.1.2-.3.2-.4.2-.1 0-.3 0-.4-.2l-5.7-6L13 18.7c0 .1-.1.1-.1.2l-5 4c-.2.1-.3.1-.4.1s-.3-.1-.4-.2c-.2-.2-.1-.5.1-.7l4.9-3.9 5.8-12.3c.1-.1.2-.3.4-.3s.3 0 .4.1l5.9 6.1 3.6-4.6c.1-.2.4-.3.6-.1z"/></g>
			
	<linearGradient id="picture-gradient" x1="0" y1="0" y2="1" x2="0" >
		<stop stop-color="#ffffff" offset="0%"/>
		<stop stop-color="#ffffff" offset="100%"/>
	</linearGradient>

		</defs>

		

			<use xlink:href="#background" fill="url(#background-gradient)" />

		<use xlink:href="#middle-1" />

			<g mask="url(#mask)">
				<g transform="
				        translate(
                                50 50
)
                            translate(0 0)  scale(0.7)  
                            translate(
                                -50 -50
)">
						<use xlink:href="#picture" fill="url(#picture-gradient)"  />
				</g>
			</g>

		



	</svg>
