<svg xmlns="http://www.w3.org/2000/svg" width="256" height="256"><path fill-opacity=".016" d="M0 128.004v128.004l128.25-.254 128.25-.254.254-127.75L257.008 0H0v128.004m.485.496c0 70.4.119 99.053.265 63.672.146-35.38.146-92.98 0-128C.604 29.153.485 58.1.485 128.5" fill="#1976D2" fill-rule="evenodd"/><path fill-opacity=".255" d="M13.5 1.9c-2.2 1.021-5.44 3.373-7.199 5.228C-.4 14.19-.002 6.524.022 128.218.043 233.046.135 238.698 1.879 242.5c2.226 4.852 6.324 9.053 11.318 11.601 3.591 1.832 7.654 1.899 114.641 1.899 120.409 0 114.106.284 120.917-5.447 1.647-1.387 4.177-5.016 5.62-8.064l2.625-5.544V126.473C257 63.66 256.621 16 256.121 16c-.483 0-1.416-1.299-2.074-2.886-1.686-4.071-6.847-9.097-11.547-11.243C238.703.137 232.886.044 128 .044 22.463.044 17.32.127 13.5 1.9M.483 128c0 61.325.12 86.413.267 55.75.147-30.662.147-80.837 0-111.5C.603 41.588.483 66.675.483 128M50.5 40.421c-3.765 1.686-9.044 7.195-10.439 10.894C39.478 52.863 39 59.726 39 66.565V79h39.92l.29-20.001.29-20.001-13 .04c-8.644.027-14.005.49-16 1.383M87 59v20h12c10.712 0 12.217.217 14.023 2.023 1.607 1.607 1.805 2.43.965 4-.971 1.813-2.132 1.977-14.023 1.977H87v20.263c0 20.054.023 20.273 2.25 21.25 1.254.55 2.25 1.872 2.25 2.987s-.996 2.437-2.25 2.987c-2.095.919-2.25 1.611-2.25 10.05 0 8.91-.808 11.463-3.629 11.463-3.257 0-4.371-3.077-4.371-12.071V135H39v34h13.8c14.219 0 16.2.509 16.2 4.165 0 3.051-3.476 3.835-17.01 3.835H38.849l.325 13.931c.362 15.476.706 16.415 8.23 22.511 3.749 3.038 3.867 3.06 17.685 3.384l13.911.325v-6.141c0-6.863 1.206-10.01 3.835-10.01 3.172 0 4.165 2.193 4.165 9.2v6.8h41v-40h-12.429c-9.965 0-12.74-.311-14-1.571-.864-.865-1.571-2.125-1.571-2.8 0-3.03 2.509-3.629 15.2-3.629H128v-30.433c0-29.792.043-30.446 2.048-31.082 3.929-1.247 4.952 1.046 4.952 11.101v9.342l9.644.286c7.703.228 9.855.621 10.692 1.952.759 1.207.686 2.103-.266 3.25-1.029 1.239-3.356 1.584-10.692 1.584H135v34h34v-10.465c0-9.323.211-10.578 1.934-11.5 2.502-1.339 2.635-1.323 4.495.536 1.217 1.218 1.571 3.808 1.571 11.5V169h40v-34h-12.465c-10.917 0-12.583-.221-13.415-1.776-.603-1.126-.598-2.406.014-3.5.833-1.488 2.669-1.724 13.416-1.724H217V87h-40v9.566c0 10.616-.929 13.434-4.428 13.434-3.166 0-3.572-1.487-3.572-13.082V87h-12.965c-11.891 0-13.052-.164-14.023-1.977-.84-1.57-.642-2.393.965-4C144.783 79.217 146.288 79 157 79h12V39h-34v12.465c0 10.917-.221 12.583-1.776 13.415-1.126.603-2.406.598-3.5-.014-1.488-.833-1.724-2.669-1.724-13.416V39H87v20m89.79-.041l.29 19.961 19.961.29 19.961.29-.001-12.685c-.001-14.07-.663-16.772-5.312-21.684-5.011-5.295-8.065-6.131-22.407-6.132l-12.782-.001.29 19.961M121.22 98.25c-3.724 7.838-12.834 27.207-20.245 43.043L87.5 170.086l-17.205 13.707c-9.463 7.539-17.487 14.516-17.833 15.505C51.7 201.483 53.599 204 56.01 204c.971 0 9.803-6.464 19.627-14.365L93.5 175.271l18.938-41.136C122.854 111.511 131.475 93 131.597 93c.121 0 9.125 9.338 20.009 20.75 13.908 14.585 20.435 20.75 21.965 20.75 1.632 0 5.705-4.501 16.287-18 7.761-9.9 14.118-18.697 14.126-19.55.018-1.784-1.881-3.95-3.463-3.95-.593 0-6.915 7.484-14.048 16.632l-12.97 16.631-20.502-21.158c-14.906-15.385-21.116-21.151-22.756-21.132-1.91.023-3.29 2.205-9.025 14.277M39 107.5V128h40V87H39v20.5m96 89.5v20h34v-40h-34v20m42 0v20h12.532c14.073 0 17.164-.855 22.157-6.131 4.638-4.9 5.311-7.618 5.311-21.434V177h-40v20" fill="#1976D2" fill-rule="evenodd"/><path fill-opacity=".807" d="M15.885 1.371C10.266 3.393 6.256 6.709 3.254 11.815L.5 16.5v223l2.221 4.153c2.727 5.1 8.131 9.686 13.201 11.206 5.509 1.65 217.296 1.619 223.857-.034 6.209-1.563 13.072-8.421 15.471-15.459 1.624-4.765 1.75-12.905 1.75-113.25C257 60.926 256.635 18 256.079 18c-.506 0-1.199-1.269-1.54-2.821-.874-3.981-5.997-9.844-10.886-12.458L239.5.5l-110-.215C41.3.112 18.784.328 15.885 1.371M.483 128c0 60.225.12 84.862.267 54.75.147-30.113.147-79.388 0-109.5C.603 43.137.483 67.775.483 128M52.01 39.316c-5.243 1.669-11.45 8.404-12.842 13.933C38.525 55.799 38 62.861 38 68.943V80h42V38l-12.25.102c-6.737.056-13.82.602-15.74 1.214m34.436-.037c-.27.704-.368 10.042-.218 20.75L86.5 79.5l13.5.5 13.5.5v5L100 86l-13.5.5-.271 20.267-.271 20.267 2.521.958c3.514 1.336 3.527 5.717.021 6.597-2.457.617-2.5.798-2.5 10.586v9.958l-2.75-.317-2.75-.316-.286-9.75-.286-9.75H37.953l.273 17.25.274 17.25 14.653.276c12.345.233 14.75.529 15.267 1.877 1.41 3.673-1.078 4.347-16.042 4.347H38v11.057c0 14.531 1.246 19.242 6.474 24.469 5.227 5.228 9.938 6.474 24.469 6.474H80v-7.933c0-7.181.199-7.995 2.101-8.599 3.144-.998 3.772.309 4.1 8.533l.299 7.499 20.75.27 20.75.271V176.058l-13.25-.279-13.25-.279-.314-2.721-.313-2.72 13.313-.28 13.314-.279.5-30.5.5-30.5h6l.286 9.714.286 9.714 9.714.286c9.383.276 9.725.367 10.051 2.673.486 3.434-1.262 4.08-11.087 4.098L135 135v35.047l17.25-.273 17.25-.274.5-11c.497-10.933.515-11 3-11s2.503.067 3 11l.5 11h41l.274-17.25.273-17.25h-12.323c-12.632 0-14.724-.582-14.724-4.093 0-2.521 2.003-2.907 15.102-2.907h11.939l-.271-20.75-.27-20.75h-41l-.282 11.193c-.26 10.31-.446 11.244-2.351 11.849-1.138.361-2.457.268-2.931-.206-.475-.475-.992-5.807-1.15-11.85L169.5 86.5 156 86l-13.5-.5v-5L156 80l13.5-.5v-41l-17.25-.274-17.25-.273v12.323C135 62.908 134.418 65 130.907 65 128.386 65 128 62.997 128 49.918V38h-20.531c-15.755 0-20.646.298-21.023 1.279M176 58.904V80h42.192l-.346-13.825c-.329-13.136-.484-14.034-3.105-17.992-1.517-2.291-4.633-5.407-6.924-6.924-3.958-2.621-4.856-2.776-17.992-3.105L176 37.808v21.096M128.229 85.25c-.559.688-9.964 20.227-20.901 43.421l-19.885 42.171-17.722 14.066C59.975 192.645 52 199.639 52 200.452c0 1.943 3.644 3.849 5.431 2.84.772-.435 9.035-6.867 18.363-14.292l16.958-13.5 19.271-41.75C122.622 110.787 131.365 92 131.453 92c.088 0 9.303 9.675 20.478 21.5 11.174 11.825 20.912 21.5 21.64 21.5 1.048 0 26.571-31.503 29.809-36.794.897-1.464-.975-4.206-2.871-4.206-.686 0-7.037 7.39-14.115 16.423l-12.868 16.423-20.853-21.423C141.204 93.64 131.241 84 130.532 84c-.708 0-1.744.563-2.303 1.25m-89.542 1.397c-.378.377-.687 9.836-.687 21.02V128h42.041l-.271-20.75-.27-20.75-20.063-.27c-11.035-.149-20.372.039-20.75.417M135 197v21.047l17.25-.273 17.25-.274v-41l-17.25-.274-17.25-.273V197m41 0v21h11.057c14.531 0 19.242-1.246 24.469-6.474 5.228-5.227 6.474-9.938 6.474-24.469V176h-42v21" fill="#1976D2" fill-rule="evenodd"/><path fill-opacity=".945" d="M19 .936C11.898 2.369 6.158 6.876 2.364 14 .578 17.354.5 22.09.5 127.5c0 88.045.261 110.737 1.308 113.69 1.679 4.737 8.265 11.323 13.002 13.002 2.953 1.047 25.645 1.308 113.69 1.308h110l4.84-2.383c5.688-2.8 10.425-8.795 11.307-14.311.339-2.118 1.007-4.092 1.484-4.387.486-.3.763-47.853.629-107.728-.238-106.326-.244-106.617-.75-35.995l-.51 71.195-18.5-15.415c-18.115-15.095-18.604-15.419-23.5-15.603l-5-.187 5-.593 5-.593.031-21.251.03-21.25-.3 20.971-.301 20.972-13.23.279c-12.47.263-13.23.394-13.23 2.279 0 1.885.76 2.016 13.25 2.279l13.25.279V170h-42v-10.378c0-10.792-1.025-13.594-4.487-12.265-1.224.469-1.513 2.69-1.513 11.635v11.054l-17.75-.273-17.75-.273v-35l10-.5c9.167-.458 10-.667 10-2.5s-.833-2.042-10-2.5l-10-.5-.5-10c-.472-9.433-.628-10.018-2.75-10.32l-2.25-.319-.152 29.319c-.084 16.126-.197 29.995-.25 30.82-.08 1.228-2.547 1.591-13.598 2l-13.5.5v5l13.255.5c7.291.275 13.253.838 13.25 1.25-.003.412-.005 9.75-.005 20.75v20H86V201.867l-2.75.317c-2.707.311-2.755.437-3.042 8.066l-.292 7.75h-12.49c-13.666 0-17.712-1.03-22.802-5.803-5.37-5.035-6.578-9.321-6.602-23.42L38 176.053l14.75-.276 14.75-.277v-5l-14.75-.277-14.75-.276V134h41.93l.285 10.25c.283 10.191.299 10.25 2.785 10.25 2.477 0 2.503-.091 2.787-9.789.274-9.363.393-9.829 2.75-10.725 3.178-1.208 3.159-3.771-.037-4.986l-2.5-.95V86h13.393c11.446 0 13.484-.236 14.017-1.627C114.8 80.752 112.3 80 98.878 80H86V38l21.25-.219 21.25-.22-21-.561c-11.55-.309-17.175-.675-12.5-.814l8.5-.253-2.5-2.052c-1.375-1.128-11.136-9.213-21.692-17.966L60.116 0 41.308.115C30.964.178 20.925.548 19 .936M.482 128c0 59.125.121 83.313.268 53.75.147-29.563.147-77.938 0-107.5C.603 44.687.482 68.875.482 128m140.724-90.259c3.689.191 9.989.193 14 .002 4.012-.19.994-.347-6.706-.348-7.7-.002-10.982.154-7.294.346M50.5 39.896c-2.2 1.018-5.214 3.146-6.697 4.728C39.026 49.718 38 53.757 38 67.468V80h42V38l-12.75.022c-10.271.018-13.528.382-16.75 1.874m82.717 10.854c-.178 10.893-.479 13.25-1.687 13.25-1.2 0-1.528-2.34-1.783-12.75l-.312-12.75-.218 12.781c-.184 10.816.024 12.874 1.35 13.383 2.969 1.14 3.498-1.227 3.181-14.245l-.313-12.919-.218 13.25m37.008 11.5L170 80h-12.878c-13.422 0-15.922.752-14.532 4.373.533 1.391 2.571 1.627 14.017 1.627H170V109.133l2.75-.317 2.75-.316.283-11.25.283-11.25 20.717-.228 20.717-.228-20.429-.293c-11.236-.162-20.783.061-21.217.495-.433.433-.873 3.393-.977 6.577-.106 3.244-.531 5.236-.967 4.531-.428-.692-.575-1.586-.328-1.987.248-.401-.007-1.011-.566-1.357-.649-.401-1.088 2.191-1.215 7.181-.177 6.905-.264 6.478-.75-3.691l-.551-11.5-13.5-.544c-11.709-.473-12.317-.572-4.583-.75 8.553-.198 10.433-.772 5.583-1.706-4.256-.82-3.059-1.218 4.217-1.401 3.997-.101 7.62-.536 8.05-.966.43-.43.647-8.623.482-18.207L170.45 44.5l-.225 17.75M131.158 61c0 1.375.227 1.938.504 1.25.278-.687.278-1.812 0-2.5-.277-.687-.504-.125-.504 1.25m44.284 9l.058 10.5 11.752.05 11.751.05-11.467-.332-11.467-.331-.342-10.218-.343-10.219.058 10.5m-46.018 14.673c-.592.208-10.229 19.719-21.416 43.358l-20.339 42.981-17.36 13.744C57.03 195.269 53.014 198.97 53.225 200.5c.647 4.7 4.316 2.817 21.941-11.261l17.369-13.874L111.566 134c10.467-22.751 19.459-41.461 19.982-41.578.524-.117 9.727 9.161 20.452 20.618 12.565 13.422 20.211 20.842 21.5 20.864 2.186.037 8.999-8.162 9.001-10.833.001-.864.451-1.578 1-1.586 1.533-.024 3.499-1.487 3.499-2.603 0-.55-.562-.662-1.25-.249-.849.51-.81.209.122-.941 1.609-1.984 2.519-2.233 1.615-.442-.92 1.821 3.729-3.679 10.113-11.966 5.416-7.029 6.485-10.501 3.389-11.002-.87-.14-5.439 4.817-10.989 11.923-9.892 12.665-11.198 14.617-8.88 13.274.815-.472 1.039-.427.547.111-.459.5-1.232.91-1.719.91-.487 0-2.155 1.521-3.707 3.38l-2.821 3.38-20.331-21.069c-11.181-11.588-20.838-21.255-21.459-21.483-.622-.227-1.614-.243-2.206-.035M38 106.961v20.96l20.585.29c11.322.159 20.772.102 21-.128.228-.229.415-9.791.415-21.25V86H38v20.961m156.381-4.711c-7.139 9.075-8.475 10.968-5.685 8.056 2.952-3.081 3.827-1.274 1.126 2.326-3.971 5.293.983-.056 6.605-7.132 5.157-6.491 6.92-10.5 4.616-10.5-.527 0-3.525 3.263-6.662 7.25m-10.509 13.5c-1.243 1.586-1.208 1.621.378.378.963-.755 1.75-1.543 1.75-1.75 0-.823-.821-.294-2.128 1.372m27.878 16.956c1.238.238 3.262.238 4.5 0 1.238-.239.225-.434-2.25-.434s-3.488.195-2.25.434M219.36 144c0 5.225.169 7.363.375 4.75.206-2.613.206-6.887 0-9.5-.206-2.613-.375-.475-.375 4.75M134 197v21h36v-42h-36v21m42 0v21l12.75-.022c14.128-.024 18.409-1.23 23.447-6.602 4.777-5.094 5.803-9.133 5.803-22.844V176h-42v21" fill="#1976D2" fill-rule="evenodd"/></svg>